<svg width="33" height="29" viewBox="0 0 33 29" fill="none" xmlns="http://www.w3.org/2000/svg">
<path fill-rule="evenodd" clip-rule="evenodd" d="M0.942932 2.9492C0.942932 2.34133 1.17691 1.75836 1.59339 1.32853C2.00987 0.898702 2.57473 0.657227 3.16372 0.657227H29.8132C30.4022 0.657227 30.9671 0.898702 31.3836 1.32853C31.8 1.75836 32.034 2.34133 32.034 2.9492C32.034 3.55707 31.8 4.14004 31.3836 4.56987C30.9671 4.99969 30.4022 5.24117 29.8132 5.24117H3.16372C2.57473 5.24117 2.00987 4.99969 1.59339 4.56987C1.17691 4.14004 0.942932 3.55707 0.942932 2.9492ZM0.942932 14.4091C0.942932 13.8012 1.17691 13.2182 1.59339 12.7884C2.00987 12.3586 2.57473 12.1171 3.16372 12.1171H29.8132C30.4022 12.1171 30.9671 12.3586 31.3836 12.7884C31.8 13.2182 32.034 13.8012 32.034 14.4091C32.034 15.0169 31.8 15.5999 31.3836 16.0297C30.9671 16.4596 30.4022 16.701 29.8132 16.701H3.16372C2.57473 16.701 2.00987 16.4596 1.59339 16.0297C1.17691 15.5999 0.942932 15.0169 0.942932 14.4091ZM0.942932 25.8689C0.942932 25.261 1.17691 24.6781 1.59339 24.2482C2.00987 23.8184 2.57473 23.5769 3.16372 23.5769H16.4885C17.0775 23.5769 17.6423 23.8184 18.0588 24.2482C18.4753 24.6781 18.7093 25.261 18.7093 25.8689C18.7093 26.4768 18.4753 27.0597 18.0588 27.4896C17.6423 27.9194 17.0775 28.1609 16.4885 28.1609H3.16372C2.57473 28.1609 2.00987 27.9194 1.59339 27.4896C1.17691 27.0597 0.942932 26.4768 0.942932 25.8689Z" fill="white"/>
</svg>
