<svg width="17" height="14" viewBox="0 0 17 14" fill="none" xmlns="http://www.w3.org/2000/svg">
<path fill-rule="evenodd" clip-rule="evenodd" d="M8.91531 1.226C9.16775 0.981558 9.51009 0.844238 9.86705 0.844238C10.224 0.844238 10.5663 0.981558 10.8188 1.226L16.2035 6.44154C16.4558 6.68605 16.5976 7.01764 16.5976 7.36339C16.5976 7.70913 16.4558 8.04072 16.2035 8.28523L10.8188 13.5008C10.5649 13.7383 10.2249 13.8697 9.87189 13.8667C9.51893 13.8638 9.18129 13.7266 8.9317 13.4849C8.68211 13.2431 8.54054 12.9161 8.53747 12.5742C8.5344 12.2324 8.67009 11.903 8.91531 11.6571L12.0021 8.66727H1.79002C1.43299 8.66727 1.09059 8.5299 0.838132 8.28537C0.585676 8.04085 0.443848 7.7092 0.443848 7.36339C0.443848 7.01757 0.585676 6.68593 0.838132 6.4414C1.09059 6.19687 1.43299 6.0595 1.79002 6.0595H12.0021L8.91531 3.06969C8.66294 2.82518 8.52116 2.49359 8.52116 2.14785C8.52116 1.8021 8.66294 1.47051 8.91531 1.226V1.226Z" fill="#F7C648"/>
</svg>
